<svg width="100" height="100" viewBox="0 0 100 100" fill="none" xmlns="http://www.w3.org/2000/svg">
<circle cx="50" cy="50" r="50" fill="#66F9A1"/>
<path d="M72 32.4375H32.125C31.3 32.4375 30.475 32.65 29.925 33.2875L25.8 37.5375C24.425 39.025 25.8 40.9375 28 40.9375H67.875C68.7 40.9375 69.525 40.725 70.075 40.0875L74.2 35.8375C75.575 34.35 74.2 32.4375 72 32.4375Z" fill="white" stroke="white" stroke-width="1.5" stroke-miterlimit="10"/>
<path d="M28 46.25H67.875C68.7 46.25 69.525 46.4625 70.075 47.1L74.2 51.35C75.575 52.8375 74.2 54.75 72 54.75H32.125C31.3 54.75 30.475 54.5375 29.925 53.9L25.8 49.65C24.425 48.1625 25.8 46.25 28 46.25Z" fill="white" stroke="white" stroke-width="1.5" stroke-miterlimit="10"/>
<path d="M72 60.0625H32.125C31.3 60.0625 30.475 60.275 29.925 60.9125L25.8 65.1625C24.425 66.65 25.8 68.5625 28 68.5625H67.875C68.7 68.5625 69.525 68.35 70.075 67.7125L74.2 63.4625C75.575 61.975 74.2 60.0625 72 60.0625Z" fill="white" stroke="white" stroke-width="1.5" stroke-miterlimit="10"/>
</svg>
