<svg width="63" height="63" viewBox="0 0 63 63" fill="none" xmlns="http://www.w3.org/2000/svg">
<g clip-path="url(#clip0_3683_257)">
<path fill-rule="evenodd" clip-rule="evenodd" d="M47 32C55.8366 32 63 24.8366 63 16C63 7.16344 55.8366 0 47 0C38.1634 0 31 7.16344 31 16C31 24.8366 38.1634 32 47 32ZM47.5226 9.14284L41.0576 15.6078L47.5226 22.0728L53.9876 15.6078L47.5226 9.14284Z" fill="#AF9508"/>
<path fill-rule="evenodd" clip-rule="evenodd" d="M24 63C37.2548 63 48 52.2548 48 39C48 25.7452 37.2548 15 24 15C10.7452 15 0 25.7452 0 39C0 52.2548 10.7452 63 24 63ZM23.6218 28.4399L13.4395 38.6223L23.6218 48.8046L33.8041 38.6223L23.6218 28.4399Z" fill="#847214"/>
</g>
<defs>
<clipPath id="clip0_3683_257">
<rect width="63" height="63" fill="white"/>
</clipPath>
</defs>
</svg>
